# xmcd
#
# Track frame offsets:
#	150
#	15576
#	28645
#	44855
#	59118
#	72468
#	93525
#	108832
#	122375
#	139463
#	160064
#	175295
#	187864
#
# Disc length: 2724 seconds
#
# Revision: 1
# Processed by: cddbd v1.5.2PL0 Copyright (c) Steve Scherf et al.
# Submitted via: audiograbber 1.83.01
#
DISCID=b80aa20d
DTITLE=Morning Dew - Down A Winding Road
DYEAR=2001
DGENRE=Bluegrass
TTITLE0=Wave The Ocean, Wave The Sea
TTITLE1=Georgia Piney Woods
TTITLE2=Colleen Malone
TTITLE3=Roly Poly
TTITLE4=Down A Winding Road
TTITLE5=Angel Band
TTITLE6=Horseshoe Bend
TTITLE7=Little White Washed Chimney
TTITLE8=Cats In The Cradle
TTITLE9=Banjo Medley: Stormy Night - Arkansas Traveller - Soldier's Joy
TTITLE10=You Wouldn`t Know Love
TTITLE11=The Girl At The Crossroads Bar
TTITLE12=Your Lone Journey
EXTD=
EXTT0=
EXTT1=
EXTT2=
EXTT3=
EXTT4=
EXTT5=
EXTT6=
EXTT7=
EXTT8=
EXTT9=
EXTT10=
EXTT11=
EXTT12=
PLAYORDER=
